<svg width="84" height="49" viewBox="0 0 84 49" fill="none" xmlns="http://www.w3.org/2000/svg">
<g clip-path="url(#clip0_886_151)">
<g clip-path="url(#clip1_886_151)">
<mask id="mask0_886_151" style="mask-type:luminance" maskUnits="userSpaceOnUse" x="0" y="0" width="84" height="49">
<path d="M83.407 0.59082H0.395264V48.0261H83.407V0.59082Z" fill="white"/>
</mask>
<g mask="url(#mask0_886_151)">
<path d="M44.5755 2.50672C45.6727 1.36534 47.1627 0.724121 48.7144 0.724121C55.6952 0.724121 62.2738 0.724125 68.7524 0.724138C81.7827 0.724165 88.3076 17.1133 79.0939 26.6984L59.024 47.5772C58.1028 48.5358 56.5274 47.8568 56.5274 46.5013V28.112L58.8466 25.6991C60.6894 23.782 59.3843 20.5042 56.7783 20.5042H27.2754L44.5755 2.50672Z" fill="white"/>
<path d="M39.2269 46.11C38.1298 47.2514 36.6398 47.8926 35.0881 47.8926C28.1073 47.8926 21.5286 47.8926 15.0501 47.8926C2.01972 47.8925 -4.50523 31.5035 4.70856 21.9182L24.7785 1.03952C25.6997 0.081001 27.2751 0.759865 27.2751 2.11541L27.2753 20.5045L24.9558 22.9175C23.1131 24.8347 24.4181 28.1125 27.0242 28.1125L56.5272 28.1123L39.2269 46.11Z" fill="white"/>
</g>
</g>
</g>
<defs>
<clipPath id="clip0_886_151">
<rect width="84" height="48.42" fill="white"/>
</clipPath>
<clipPath id="clip1_886_151">
<rect width="84" height="48.4235" fill="white" transform="translate(0 -0.00195312)"/>
</clipPath>
</defs>
</svg>
