<svg width="133" height="25" viewBox="0 0 133 25" fill="none" xmlns="http://www.w3.org/2000/svg">
<g clip-path="url(#clip0_886_94)">
<g clip-path="url(#clip1_886_94)">
<mask id="mask0_886_94" style="mask-type:luminance" maskUnits="userSpaceOnUse" x="0" y="0" width="133" height="25">
<path d="M132.901 0.791992H0.893311V24.6129H132.901V0.791992Z" fill="white"/>
</mask>
<g mask="url(#mask0_886_94)">
<path fill-rule="evenodd" clip-rule="evenodd" d="M23.7998 1.35019C24.5705 0.611791 25.7855 0.608434 26.5603 1.32548L26.6336 1.39672L26.8842 1.65988C29.4221 4.39424 30.3678 7.58077 30.1252 10.6927C29.8791 13.8487 28.4252 16.8247 26.3968 19.1766C24.3698 21.5268 21.6634 23.3777 18.7381 24.181C15.7759 24.9944 12.5361 24.7351 9.72395 22.7465C7.33874 21.0598 6.43062 18.3338 6.36894 15.6856C5.03045 15.028 3.62212 14.2108 2.14444 13.2169L1.75398 12.9513L1.67081 12.8911C0.83189 12.2491 0.640071 11.061 1.25149 10.1887C1.8631 9.31648 3.054 9.07987 3.95431 9.6343L4.04091 9.69053L4.39663 9.93286C5.28182 10.5283 6.12648 11.0444 6.92964 11.4901C7.44775 9.6688 8.30628 7.92015 9.43724 6.47875C11.1316 4.31941 13.6721 2.59254 16.7844 2.85018C19.5877 3.08242 21.659 4.53094 22.7282 6.5752C23.7634 8.55469 23.7787 10.9359 22.874 12.9837C21.9516 15.0713 20.0789 16.8106 17.3852 17.5273C15.4466 18.043 13.1755 18.0075 10.613 17.3169V17.3179C9.59296 17.0429 8.52394 16.6631 7.40671 16.1698C7.15608 16.0592 6.93794 16.2282 7.40671 16.5216C8.72601 17.4596 10.5845 18.2458 11.1224 18.5097C11.3765 18.9216 11.6917 19.2593 12.053 19.5148C13.7155 20.6905 15.6604 20.9059 17.6676 20.3547C19.7115 19.7934 21.7601 18.4401 23.349 16.5977C24.9368 14.7568 25.9605 12.5511 26.1292 10.3869C26.2883 8.34501 25.7001 6.24725 23.9279 4.34096L23.7528 4.15728L23.6828 4.08167C22.9855 3.29088 23.0293 2.08855 23.7998 1.35019ZM16.4506 6.80688C15.1648 6.70041 13.8078 7.37841 12.602 8.91509C11.6837 10.0854 10.9888 11.6061 10.6345 13.1708C13.1581 14.0349 15.0387 14.0408 16.3455 13.6933C17.8582 13.2908 18.7653 12.3797 19.2019 11.3916C19.656 10.3636 19.6096 9.24341 19.1691 8.40134C18.7626 7.62413 17.9443 6.93063 16.4506 6.80688Z" fill="white"/>
<path d="M83.1495 8.89293C82.0331 8.89293 81.3164 8.05331 81.4716 6.92694C81.627 5.80058 82.5755 4.96094 83.6925 4.96094C84.8088 4.96094 85.5257 5.80058 85.3704 6.92694C85.2151 8.05331 84.2665 8.89293 83.1495 8.89293Z" fill="white"/>
<path d="M80.1038 19.9306L81.4997 9.81396H84.5454L83.1495 19.9306H80.1038Z" fill="white"/>
<path fill-rule="evenodd" clip-rule="evenodd" d="M85.4575 14.9754L84.1769 24.2524H87.2226L87.9717 18.8254C88.477 19.7264 89.4273 20.1975 90.625 20.1975C92.8995 20.1975 95.7302 18.5182 96.2159 14.9957C96.6657 11.7396 94.7345 9.54834 91.5466 9.54834C88.4806 9.54834 85.9264 11.5757 85.4575 14.9754ZM93.1468 14.8729C92.9461 16.3269 91.8733 17.3304 90.493 17.3304C89.112 17.3304 88.3164 16.3269 88.517 14.8729C88.7177 13.4189 89.7905 12.4154 91.1709 12.4154C92.5519 12.4154 93.3475 13.4189 93.1468 14.8729Z" fill="white"/>
<path d="M100.272 20.1975C97.6936 20.1975 96.2207 18.8049 96.4482 16.8594H99.4533C99.3997 17.3919 99.75 17.6581 100.582 17.6581C101.516 17.6581 101.866 17.3304 101.925 16.9004C102.012 16.2694 101.388 16.174 100.561 16.0475L100.558 16.0469C100.499 16.0381 100.441 16.029 100.381 16.0198C99.0293 15.815 96.803 15.4668 97.1393 13.0298C97.4219 10.9819 99.2239 9.54834 101.721 9.54834C104.218 9.54834 105.561 11.0023 105.371 12.8249H102.406C102.39 12.354 102.021 12.0878 101.412 12.0878C100.66 12.0878 100.302 12.4769 100.245 12.8864C100.165 13.473 100.817 13.5742 101.672 13.7069L101.795 13.7261C103.208 13.9308 105.368 14.32 105.037 16.7161C104.748 18.8049 102.851 20.1975 100.272 20.1975Z" fill="white"/>
<path d="M117.477 14.2381L116.692 19.9313H119.737L120.523 14.2381C120.709 12.8865 121.424 12.4154 122.338 12.4154C123.231 12.4154 123.816 12.8865 123.629 14.2381L122.843 19.9313H125.889L126.675 14.2381C126.862 12.8865 127.577 12.4154 128.47 12.4154C129.384 12.4154 129.969 12.8865 129.782 14.2381L128.996 19.9313H132.042L132.828 14.2381C133.277 10.9819 131.608 9.54834 129.17 9.54834C127.729 9.54834 126.474 10.1013 125.577 11.1662C124.972 10.1013 123.85 9.54834 122.429 9.54834C119.992 9.54834 117.926 10.9819 117.477 14.2381Z" fill="white"/>
<path d="M106.163 15.0566C105.691 18.4767 107.443 20.1968 110.408 20.1968C113.373 20.1968 115.603 18.4561 116.072 15.0566L116.795 9.81396H113.75L113.026 15.0566C112.806 16.654 111.94 17.3298 110.804 17.3298C109.666 17.3298 108.989 16.654 109.209 15.0566L109.932 9.81396H106.886L106.163 15.0566Z" fill="white"/>
<path fill-rule="evenodd" clip-rule="evenodd" d="M68.7898 14.8729C68.3664 17.9448 70.2892 20.1975 73.4567 20.1975C76.6243 20.1975 79.1683 17.9448 79.5924 14.8729C80.0165 11.801 78.0937 9.54834 74.9261 9.54834C71.7585 9.54834 69.2139 11.801 68.7898 14.8729ZM76.506 14.8729C76.3053 16.3269 75.2326 17.3304 73.8522 17.3304C72.4712 17.3304 71.6755 16.3269 71.8762 14.8729C72.0769 13.4189 73.1498 12.4154 74.5301 12.4154C75.9111 12.4154 76.7067 13.4189 76.506 14.8729Z" fill="white"/>
<path fill-rule="evenodd" clip-rule="evenodd" d="M59.0923 19.2463C57.862 18.3065 57.2518 16.7412 57.5096 14.8729C57.9335 11.801 60.4779 9.54834 63.6453 9.54834C66.8128 9.54834 68.7356 11.801 68.3121 14.8729C67.9024 17.8401 65.5142 20.0431 62.4978 20.1898C63.208 20.5971 64.2402 20.9264 64.9988 21.1685C65.252 21.2494 65.4748 21.3206 65.645 21.3816C66.3338 21.5553 66.7733 22.2025 66.667 22.9744C66.5422 23.8795 65.7137 24.6131 64.816 24.6131H59.942C58.1474 24.6131 56.895 23.1457 57.1447 21.3357H62.3425C61.155 20.8725 59.8998 19.9459 59.0923 19.2463ZM62.5718 17.3304C63.9523 17.3304 65.025 16.3269 65.2257 14.8729C65.4265 13.4189 64.6308 12.4154 63.2498 12.4154C61.8694 12.4154 60.7966 13.4189 60.596 14.8729C60.3953 16.3269 61.1908 17.3304 62.5718 17.3304Z" fill="white"/>
<path fill-rule="evenodd" clip-rule="evenodd" d="M46.2292 14.8729C45.8053 17.9448 47.7279 20.1975 50.8955 20.1975C54.0632 20.1975 56.6075 17.9448 57.0315 14.8729C57.4554 11.801 55.5326 9.54834 52.365 9.54834C49.1975 9.54834 46.653 11.801 46.2292 14.8729ZM53.9451 14.8729C53.7445 16.3269 52.6719 17.3304 51.2912 17.3304C49.9104 17.3304 49.1149 16.3269 49.3155 14.8729C49.5162 13.4189 50.5887 12.4154 51.9694 12.4154C53.3501 12.4154 54.1457 13.4189 53.9451 14.8729Z" fill="white"/>
<path d="M35.5378 19.9315L37.3859 6.53809H40.6753L39.2511 16.8596H45.5253L45.1014 19.9315H35.5378Z" fill="white"/>
</g>
</g>
</g>
<defs>
<clipPath id="clip0_886_94">
<rect width="133" height="24.81" fill="white"/>
</clipPath>
<clipPath id="clip1_886_94">
<rect width="133" height="24.8134" fill="white" transform="translate(0 -0.00195312)"/>
</clipPath>
</defs>
</svg>
