<svg width="63" height="49" viewBox="0 0 63 49" fill="none" xmlns="http://www.w3.org/2000/svg">
<g clip-path="url(#clip0_886_205)">
<g clip-path="url(#clip1_886_205)">
<mask id="mask0_886_205" style="mask-type:luminance" maskUnits="userSpaceOnUse" x="0" y="0" width="63" height="49">
<path d="M62.7047 0.785156H0.689087V48.0352H62.7047V0.785156Z" fill="white"/>
</mask>
<g mask="url(#mask0_886_205)">
<path d="M62.7047 2.51381C62.7047 2.97229 62.5232 3.41198 62.2001 3.73616C61.877 4.06034 61.4389 4.24247 60.9821 4.24247C60.5251 4.24247 60.087 4.06034 59.7639 3.73616C59.4408 3.41198 59.2594 2.97229 59.2594 2.51381C59.2594 2.05535 59.4408 1.61566 59.7639 1.29146C60.087 0.967282 60.5251 0.785156 60.9821 0.785156C61.4389 0.785156 61.877 0.967282 62.2001 1.29146C62.5232 1.61566 62.7047 2.05535 62.7047 2.51381Z" fill="white"/>
<path fill-rule="evenodd" clip-rule="evenodd" d="M16.4801 47.7981C7.75886 47.7981 0.689087 40.7038 0.689087 31.9521V1.93799H6.43128V31.9521C6.43128 34.6265 7.48998 37.1914 9.37451 39.0825C11.259 40.9736 13.815 42.0359 16.4801 42.0359C22.0994 42.0359 26.529 37.6901 26.529 32.1895H32.2711V40.8328C32.2711 41.2148 32.4223 41.5812 32.6915 41.8514C32.9608 42.1216 33.326 42.2733 33.7066 42.2733C34.0874 42.2733 34.4525 42.1216 34.7217 41.8514C34.9909 41.5812 35.1422 41.2148 35.1422 40.8328V30.605C34.0992 30.8186 33.022 30.7967 31.9884 30.541C30.9549 30.2853 29.991 29.8021 29.1665 29.1264C28.342 28.4508 27.6776 27.5996 27.2215 26.6344C26.7653 25.6693 26.5288 24.6144 26.529 23.5462V9.14074C26.529 7.23045 27.2852 5.3984 28.6313 4.04762C29.9773 2.69685 31.803 1.93799 33.7066 1.93799C35.6103 1.93799 37.436 2.69685 38.7821 4.04762C40.1282 5.3984 40.8844 7.23045 40.8844 9.14074V40.8328C40.8844 41.2148 41.0356 41.5812 41.3048 41.8514C41.574 42.1216 41.9392 42.2733 42.3199 42.2733C42.7007 42.2733 43.0658 42.1216 43.335 41.8514C43.6042 41.5812 43.7555 41.2148 43.7555 40.8328V9.14074C43.7555 7.23045 44.5117 5.3984 45.8578 4.04762C47.2039 2.69685 49.0296 1.93799 50.9332 1.93799C52.8369 1.93799 54.6626 2.69685 56.0086 4.04762C57.3548 5.3984 58.111 7.23045 58.111 9.14074V40.8328C58.111 42.1705 57.7397 43.4817 57.039 44.6195C56.3382 45.7573 55.3355 46.6769 54.1432 47.2752C52.951 47.8734 51.6162 48.1265 50.2886 48.0064C48.961 47.8864 47.693 47.3976 46.6265 46.595C45.3853 47.5322 43.8733 48.0378 42.3199 48.0356C40.7666 48.0378 39.2547 47.5322 38.0133 46.595C37.1494 47.2451 36.1505 47.6912 35.091 47.9002C34.0315 48.1093 32.9386 48.0757 31.8938 47.8022C30.849 47.5285 29.8791 47.022 29.0564 46.3201C28.2337 45.6183 27.5794 44.7392 27.1422 43.7484C24.3216 46.2803 20.5696 47.7981 16.4801 47.7981ZM50.9332 42.2733C50.1408 42.2733 49.4977 41.628 49.4977 40.8328V9.14074C49.4977 8.75867 49.6489 8.39227 49.9181 8.12212C50.1873 7.85196 50.5525 7.70018 50.9332 7.70018C51.3139 7.70018 51.6791 7.85196 51.9483 8.12212C52.2175 8.39227 52.3688 8.75867 52.3688 9.14074V40.8328C52.3688 41.628 51.7256 42.2733 50.9332 42.2733ZM35.1422 23.5462C35.1422 23.9282 34.9909 24.2947 34.7217 24.5648C34.4525 24.835 34.0874 24.9867 33.7066 24.9867C33.326 24.9867 32.9608 24.835 32.6915 24.5648C32.4223 24.2947 32.2711 23.9282 32.2711 23.5462V9.14074C32.2711 8.75867 32.4223 8.39227 32.6915 8.12212C32.9608 7.85196 33.326 7.70018 33.7066 7.70018C34.0874 7.70018 34.4525 7.85196 34.7217 8.12212C34.9909 8.39227 35.1422 8.75867 35.1422 9.14074V23.5462Z" fill="white"/>
<path fill-rule="evenodd" clip-rule="evenodd" d="M9.30237 32.1895C9.30237 34.0998 10.0586 35.9318 11.4047 37.2827C12.7508 38.6334 14.5765 39.3923 16.4801 39.3923C18.3837 39.3923 20.2095 38.6334 21.5555 37.2827C22.9016 35.9318 23.6578 34.0998 23.6578 32.1895V9.14074C23.6578 7.23045 22.9016 5.3984 21.5555 4.04762C20.2095 2.69685 18.3837 1.93799 16.4801 1.93799C14.5765 1.93799 12.7508 2.69685 11.4047 4.04762C10.0586 5.3984 9.30237 7.23045 9.30237 9.14074V32.1895ZM16.4801 33.63C15.6876 33.63 15.0446 32.9847 15.0446 32.1895V9.14074C15.0446 8.75868 15.1958 8.39227 15.465 8.12212C15.7342 7.85196 16.0994 7.70018 16.4801 7.70018C16.8608 7.70018 17.2259 7.85196 17.4952 8.12212C17.7644 8.39227 17.9157 8.75868 17.9157 9.14074V32.1895C17.9157 32.9847 17.2725 33.63 16.4801 33.63Z" fill="white"/>
</g>
</g>
</g>
<defs>
<clipPath id="clip0_886_205">
<rect width="63" height="48.23" fill="white"/>
</clipPath>
<clipPath id="clip1_886_205">
<rect width="63" height="48.2344" fill="white" transform="translate(0 -0.00195312)"/>
</clipPath>
</defs>
</svg>
