<svg width="76" height="49" viewBox="0 0 76 49" fill="none" xmlns="http://www.w3.org/2000/svg">
<g clip-path="url(#clip0_886_34)">
<g clip-path="url(#clip1_886_34)">
<mask id="mask0_886_34" style="mask-type:luminance" maskUnits="userSpaceOnUse" x="0" y="0" width="76" height="48">
<path d="M75.6053 0.589844H0.592316V47.9665H75.6053V0.589844Z" fill="white"/>
</mask>
<g mask="url(#mask0_886_34)">
<path d="M75.6053 35.3531L45.9775 6.61741C45.1248 5.79039 43.981 5.32751 42.7901 5.32751C38.6921 5.32751 36.6689 10.2818 39.6061 13.1245L71.4036 43.8999C72.9354 45.3825 71.8802 47.9665 69.7429 47.9665H12.0905C10.8274 47.9665 9.61599 47.4673 8.72281 46.5788L1.98728 39.8788C1.0941 38.9903 0.592316 37.7852 0.592316 36.5287V13.202L30.2201 41.9389C31.0729 42.766 32.2166 43.2288 33.4076 43.2288C37.5055 43.2288 39.5287 38.2745 36.5916 35.4318L4.79402 4.65648C3.26215 3.17384 4.31735 0.589844 6.45469 0.589844H64.107C65.3702 0.589844 66.5816 1.08899 67.4749 1.97747L74.2103 8.67755C75.1035 9.56602 75.6053 10.7711 75.6053 12.0275V35.3531Z" fill="white"/>
</g>
</g>
</g>
<defs>
<clipPath id="clip0_886_34">
<rect width="76" height="48.36" fill="white"/>
</clipPath>
<clipPath id="clip1_886_34">
<rect width="76" height="48.3636" fill="white" transform="translate(0 -0.00195312)"/>
</clipPath>
</defs>
</svg>
