<svg width="140" height="37" viewBox="0 0 140 37" fill="none" xmlns="http://www.w3.org/2000/svg">
<g clip-path="url(#clip0_886_273)">
<g clip-path="url(#clip1_886_273)">
<mask id="mask0_886_273" style="mask-type:luminance" maskUnits="userSpaceOnUse" x="0" y="0" width="140" height="37">
<path d="M139.603 0.790039H0.595856V36.5347H139.603V0.790039Z" fill="white"/>
</mask>
<g mask="url(#mask0_886_273)">
<path d="M13.4305 27.6353C13.4302 27.6713 13.43 27.7074 13.43 27.7437C13.43 28.0212 13.4399 28.2936 13.4599 28.5607H19.0341C18.984 28.3023 18.9589 28.0299 18.9589 27.7437C18.9589 27.7073 18.9593 27.6712 18.9601 27.6353H13.4305Z" fill="white"/>
<path d="M6.62953 27.6353V28.5607H1.34103V27.6353H6.62953Z" fill="white"/>
<path d="M13.4799 26.6937H19.0902C19.1615 26.424 19.2619 26.1672 19.3916 25.9235C19.4222 25.8704 19.4538 25.8187 19.4867 25.7681H13.615C13.5557 26.0692 13.5107 26.3777 13.4799 26.6937Z" fill="white"/>
<path d="M6.62953 25.7681V26.6937H1.34103V25.7681H6.62953Z" fill="white"/>
<path d="M12.9362 24.8269C12.7152 24.6165 12.4079 24.4553 12.0142 24.3432C11.5815 24.2314 10.9645 24.1755 10.1632 24.1755H6.62953V24.8269H1.34103V23.9014H13.2161V24.8269H12.9362Z" fill="white"/>
<path d="M13.8542 24.8269H20.4049C20.4811 24.7747 20.5601 24.7253 20.6416 24.6784C21.1704 24.3752 21.7794 24.2234 22.4686 24.2234C23.1577 24.2234 23.7587 24.3752 24.2714 24.6784C24.3531 24.7253 24.4318 24.7747 24.5077 24.8269H31.0433C30.9737 24.6137 30.8959 24.4046 30.81 24.1994C30.7692 24.0989 30.7269 23.9995 30.6831 23.9014H14.2104C14.165 23.9995 14.1212 24.0989 14.0791 24.1994C13.9961 24.4046 13.9212 24.6137 13.8542 24.8269Z" fill="white"/>
<path d="M14.7177 22.9592H30.187C29.9878 22.6339 29.7671 22.3254 29.5248 22.0337H15.3868C15.1431 22.3254 14.9201 22.6339 14.7177 22.9592Z" fill="white"/>
<path d="M16.3173 21.0921H28.6013C28.1988 20.7438 27.7619 20.4352 27.2904 20.1665H17.6337C17.164 20.4352 16.7252 20.7438 16.3173 21.0921Z" fill="white"/>
<path d="M13.216 20.1665V21.0921H1.24507C1.21847 20.9316 1.18632 20.7858 1.14864 20.6543C1.10112 20.4716 1.04064 20.309 0.967224 20.1665H13.216Z" fill="white"/>
<path d="M37.0491 20.1665C37.0264 20.1772 37.0039 20.1881 36.9813 20.1992C36.4562 20.4578 35.9735 20.7554 35.5331 21.0921H47.3565C47.3596 21.0817 47.3627 21.0715 47.366 21.0615C47.4782 20.7101 47.6545 20.4387 47.8948 20.247V20.1665H37.0491Z" fill="white"/>
<path d="M52.3311 20.1665C51.8615 20.4352 51.4227 20.7438 51.0148 21.0921H63.2989C62.8964 20.7438 62.4594 20.4352 61.9879 20.1665H52.3311Z" fill="white"/>
<path d="M89.3925 20.1665H96.9025C97.185 20.3175 97.4461 20.4882 97.6855 20.6781C97.8496 20.8097 98.0012 20.9477 98.142 21.0921H89.3925V20.1665Z" fill="white"/>
<path d="M74.327 20.1665H80.3712C80.2974 20.3015 80.2312 20.4561 80.173 20.6303C80.1278 20.7654 80.0897 20.9193 80.0586 21.0921H74.5843C74.5609 20.9316 74.5328 20.7858 74.4999 20.6543C74.4523 20.4716 74.3946 20.309 74.327 20.1665Z" fill="white"/>
<path d="M67.1548 20.1665H73.1255C73.0578 20.309 73.0003 20.4716 72.9527 20.6543C72.9198 20.7858 72.8916 20.9316 72.8683 21.0921H67.4121C67.3888 20.9316 67.3607 20.7858 67.3277 20.6543C67.2802 20.4716 67.2226 20.309 67.1548 20.1665Z" fill="white"/>
<path d="M64.2221 22.0337H50.084C49.8403 22.3254 49.6174 22.6339 49.4149 22.9592H64.8843C64.685 22.6339 64.4643 22.3254 64.2221 22.0337Z" fill="white"/>
<path d="M67.4961 22.9592V22.4985C67.4961 22.3363 67.4936 22.1814 67.4889 22.0337H72.7918C72.787 22.1814 72.7846 22.3363 72.7846 22.4985V22.9592H67.4961Z" fill="white"/>
<path d="M65.3801 23.9014H48.9077C48.8623 23.9995 48.8185 24.0989 48.7763 24.1994C48.6934 24.4046 48.6184 24.6137 48.5514 24.8269H55.102C55.1784 24.7747 55.2573 24.7253 55.3388 24.6784C55.8677 24.3752 56.4767 24.2234 57.1658 24.2234C57.855 24.2234 58.4559 24.3752 58.9687 24.6784C59.0503 24.7253 59.1291 24.7747 59.2049 24.8269H65.7404C65.671 24.6137 65.5932 24.4046 65.5072 24.1994C65.4665 24.0989 65.4242 23.9995 65.3801 23.9014Z" fill="white"/>
<path d="M67.4959 24.8269V23.9014H72.7845V24.8269H67.4959Z" fill="white"/>
<path d="M65.9886 25.7681H60.1041C60.1357 25.8187 60.1658 25.8704 60.1947 25.9235C60.3315 26.1672 60.4375 26.424 60.5129 26.6937H66.1287C66.0967 26.3777 66.0499 26.0692 65.9886 25.7681Z" fill="white"/>
<path d="M67.4959 26.6937V25.7681H72.7845V26.6937H67.4959Z" fill="white"/>
<path d="M66.1797 27.6353H60.65C60.6509 27.6712 60.6514 27.7073 60.6514 27.7437C60.6514 28.0299 60.6249 28.3023 60.572 28.5607H66.1492C66.17 28.2936 66.1803 28.0212 66.1803 27.7437C66.1803 27.7074 66.1801 27.6713 66.1797 27.6353Z" fill="white"/>
<path d="M67.4959 28.5607V27.6353H72.7845V28.5607H67.4959Z" fill="white"/>
<path d="M66.0301 29.5029H60.2293C60.2181 29.5236 60.2065 29.544 60.1948 29.5644C60.0127 29.8969 59.7828 30.185 59.5052 30.4284H65.8127C65.9011 30.1278 65.9736 29.8195 66.0301 29.5029Z" fill="white"/>
<path d="M67.4959 30.4284V29.5029H72.7845V30.4284H67.4959Z" fill="white"/>
<path d="M65.4738 31.3706H48.8108C48.9493 31.6924 49.1041 32.0008 49.2748 32.2963H65.0217C65.1893 32.0008 65.34 31.6924 65.4738 31.3706Z" fill="white"/>
<path d="M67.4959 32.2963V31.3706H72.7845V32.2963H67.4959Z" fill="white"/>
<path d="M64.3958 33.2378H49.9091C50.1369 33.5304 50.3843 33.807 50.6513 34.0678C50.6849 34.0999 50.7188 34.1318 50.7528 34.1633H63.5567C63.5901 34.1318 63.6234 34.0999 63.6562 34.0678C63.9233 33.807 64.1698 33.5304 64.3958 33.2378Z" fill="white"/>
<path d="M67.4407 34.1633C67.4707 33.8928 67.4885 33.5843 67.4941 33.2378H72.7865C72.7922 33.5843 72.81 33.8928 72.8399 34.1633H67.4407Z" fill="white"/>
<path d="M62.3474 35.1045H51.9723C52.4511 35.4098 52.9644 35.6708 53.512 35.8875C54.6177 36.3187 55.8357 36.5343 57.1659 36.5343C58.48 36.5343 59.6899 36.3187 60.7957 35.8875C61.3514 35.6708 61.8686 35.4098 62.3474 35.1045Z" fill="white"/>
<path d="M46.0199 34.1633V33.2378H34.2898C34.573 33.5722 34.8855 33.8807 35.2276 34.1633H46.0199Z" fill="white"/>
<path d="M36.6537 35.1045H46.0198V36.3187C45.6672 36.2069 45.3146 36.1511 44.9621 36.1511C44.7217 36.1511 44.3771 36.183 43.9284 36.2468C43.4957 36.3107 42.9909 36.3426 42.4139 36.3426C40.3466 36.3426 38.5678 35.9993 37.0774 35.3127C36.9329 35.2462 36.7917 35.1768 36.6537 35.1045Z" fill="white"/>
<path d="M28.8592 34.1633C28.8926 34.1318 28.9258 34.0999 28.9588 34.0678C29.2258 33.807 29.4723 33.5304 29.6984 33.2378H15.2117C15.4394 33.5304 15.6869 33.807 15.9539 34.0678C15.9874 34.0999 16.0213 34.1318 16.0553 34.1633H28.8592Z" fill="white"/>
<path d="M17.2748 35.1045H27.6498C27.1711 35.4098 26.6538 35.6708 26.0982 35.8875C24.9924 36.3187 23.7825 36.5343 22.4684 36.5343C21.1382 36.5343 19.9202 36.3187 18.8145 35.8875C18.2668 35.6708 17.7536 35.4098 17.2748 35.1045Z" fill="white"/>
<path d="M6.69533 34.1633C6.65967 33.8932 6.63848 33.5847 6.63176 33.2378H1.33894C1.33329 33.5843 1.31549 33.8928 1.28552 34.1633H6.69533Z" fill="white"/>
<path d="M1.08449 35.1045H6.93918C7.06974 35.4098 7.23094 35.639 7.42271 35.7918V36.0073H0.667847V35.7918C0.8396 35.6328 0.97849 35.4038 1.08449 35.1045Z" fill="white"/>
<path d="M1.34103 32.2963H6.62953V31.3706H1.34103V32.2963Z" fill="white"/>
<path d="M1.34103 30.4284H6.62953V29.5029H1.34103V30.4284Z" fill="white"/>
<path d="M13.575 29.5029C13.6294 29.8195 13.6993 30.1278 13.7845 30.4284H20.1019C19.8204 30.185 19.5836 29.8969 19.3915 29.5644C19.3804 29.544 19.3695 29.5236 19.3587 29.5029H13.575Z" fill="white"/>
<path d="M25.532 29.5029C25.5206 29.5236 25.5091 29.544 25.4973 29.5644C25.3154 29.8969 25.0854 30.185 24.8077 30.4284H31.1154C31.2037 30.1278 31.2762 29.8195 31.3327 29.5029H25.532Z" fill="white"/>
<path d="M32.5897 29.5029C32.6449 29.8217 32.7153 30.1301 32.8006 30.4284H39.2212C38.9295 30.2046 38.6877 29.9406 38.4957 29.6363C38.4681 29.5925 38.4415 29.548 38.4161 29.5029H32.5897Z" fill="white"/>
<path d="M38.0624 28.5607H32.4728C32.4495 28.2644 32.438 27.9601 32.438 27.648C32.438 27.6437 32.438 27.6394 32.438 27.6353H37.9669C37.9676 27.9635 37.9995 28.2721 38.0624 28.5607Z" fill="white"/>
<path d="M47.7771 28.5607H41.707C41.877 28.3547 42.0085 28.0665 42.1016 27.6958C42.1067 27.6761 42.1117 27.6558 42.1167 27.6353H47.3509C47.3557 27.6558 47.3608 27.6761 47.366 27.6958C47.459 28.0665 47.596 28.3547 47.7771 28.5607Z" fill="white"/>
<path d="M48.2721 29.5029C48.3266 29.8195 48.3964 30.1278 48.4816 30.4284H54.7991C54.5177 30.185 54.2809 29.8969 54.0888 29.5644C54.0777 29.544 54.0667 29.5236 54.0559 29.5029H48.2721Z" fill="white"/>
<path d="M53.7313 28.5607H48.157C48.1372 28.2936 48.1271 28.0212 48.1271 27.7437C48.1271 27.7074 48.1273 27.6713 48.1277 27.6353H53.6574C53.6565 27.6712 53.656 27.7073 53.656 27.7437C53.656 28.0299 53.6812 28.3023 53.7313 28.5607Z" fill="white"/>
<path d="M53.7873 26.6937C53.8587 26.424 53.9593 26.1672 54.0888 25.9235C54.1194 25.8704 54.1511 25.8187 54.184 25.7681H48.3122C48.253 26.0692 48.2079 26.3777 48.1771 26.6937H53.7873Z" fill="white"/>
<path d="M47.2229 26.6937C47.2062 26.4403 47.1979 26.1596 47.1979 25.8516V25.7681H42.2699V25.8516C42.2699 26.1596 42.2616 26.4403 42.2449 26.6937H47.2229Z" fill="white"/>
<path d="M38.0627 26.6937C38.1347 26.3627 38.2475 26.0542 38.4011 25.7681H32.6167C32.5566 26.0683 32.5117 26.3769 32.4819 26.6937H38.0627Z" fill="white"/>
<path d="M31.4313 26.6937C31.3993 26.3777 31.3527 26.0692 31.2912 25.7681H25.4069C25.4383 25.8187 25.4684 25.8704 25.4974 25.9235C25.6342 26.1672 25.7401 26.424 25.8155 26.6937H31.4313Z" fill="white"/>
<path d="M25.9528 27.6353C25.9537 27.6712 25.9541 27.7073 25.9541 27.7437C25.9541 28.0299 25.9277 28.3023 25.8748 28.5607H31.4519C31.4727 28.2936 31.483 28.0212 31.483 27.7437C31.483 27.7074 31.4828 27.6713 31.4825 27.6353H25.9528Z" fill="white"/>
<path d="M32.8639 24.8269H39.204C39.397 24.6712 39.6097 24.5339 39.8419 24.4151C40.451 24.1276 41.1642 23.9839 41.9815 23.9839C42.0782 23.9839 42.1745 23.9849 42.2699 23.9869V24.8269H47.1979V23.9014H33.2362C33.0926 24.1994 32.9686 24.508 32.8639 24.8269Z" fill="white"/>
<path d="M33.7764 22.9592H47.1979V22.714C47.1979 22.4653 47.2041 22.2385 47.2164 22.0337H34.503C34.2391 22.3222 33.9968 22.6307 33.7764 22.9592Z" fill="white"/>
<path d="M46.02 31.3706H33.1346C33.273 31.6931 33.4317 32.0016 33.611 32.2963H46.02V31.3706Z" fill="white"/>
<path d="M30.3245 32.2963C30.4921 32.0008 30.6429 31.6924 30.7767 31.3706H14.1136C14.2521 31.6924 14.4069 32.0008 14.5778 32.2963H30.3245Z" fill="white"/>
<path d="M67.2396 35.1045H73.041C73.147 35.4038 73.2859 35.6328 73.4577 35.7918V36.0073H66.823V35.7918C66.9948 35.6328 67.1337 35.4038 67.2396 35.1045Z" fill="white"/>
<path d="M74.385 35.1045C74.2732 35.4038 74.1192 35.6328 73.9229 35.7918V36.0073H81.6394C83.0816 36.0073 84.3156 35.7758 85.3413 35.3127C85.4931 35.2476 85.6399 35.1781 85.7815 35.1045H74.385Z" fill="white"/>
<path d="M91.0275 35.1045C92.1387 35.8341 93.6284 36.1989 95.4982 36.1989C95.9314 36.1989 96.3233 36.1749 96.6767 36.127C97.0291 36.0791 97.2937 36.0552 97.4694 36.0552C97.7421 36.0552 98.0389 36.1111 98.3591 36.2229V35.1045H91.0275Z" fill="white"/>
<path d="M98.3591 34.1633H89.9671C89.7343 33.8789 89.5448 33.5705 89.3989 33.2378H98.3591V34.1633Z" fill="white"/>
<path d="M100.044 35.1045C99.9382 35.4038 99.7992 35.6328 99.6274 35.7918V36.0073H106.238V35.7918C106.066 35.6328 105.927 35.4038 105.821 35.1045H100.044Z" fill="white"/>
<path d="M105.636 34.1633H100.245C100.276 33.8928 100.293 33.5843 100.299 33.2378H105.591C105.596 33.5843 105.611 33.8928 105.636 34.1633Z" fill="white"/>
<path d="M108.49 35.1045C108.391 35.4038 108.249 35.6328 108.065 35.7918V36.0073H114.7V35.7918C114.516 35.6328 114.369 35.4038 114.261 35.1045H108.49Z" fill="white"/>
<path d="M114.058 34.1633H108.683C108.712 33.8928 108.731 33.5843 108.736 33.2378H114.005C114.011 33.5843 114.029 33.8928 114.058 34.1633Z" fill="white"/>
<path d="M115.463 35.1045C115.339 35.4062 115.175 35.6353 114.97 35.7918V36.0073H120.763V35.8396C120.626 35.5981 120.551 35.353 120.539 35.1045H115.463Z" fill="white"/>
<path d="M120.804 34.1633H115.69C115.723 33.8944 115.746 33.5859 115.755 33.2378H121.629L121.292 33.5648C121.087 33.7684 120.925 33.968 120.804 34.1633Z" fill="white"/>
<path d="M128.316 35.1045C128.301 35.3527 128.226 35.5978 128.095 35.8396V36.0073H133.816V35.7918C133.623 35.6353 133.462 35.4062 133.332 35.1045H128.316Z" fill="white"/>
<path d="M133.096 34.1633H128.089C127.966 33.9478 127.791 33.7324 127.566 33.5169L127.287 33.2378H133.029C133.04 33.5859 133.063 33.8944 133.096 34.1633Z" fill="white"/>
<path d="M133.023 32.2963V31.3706H125.423L126.347 32.2963H133.023Z" fill="white"/>
<path d="M122.597 32.2963L123.551 31.3706H115.763V32.2963H122.597Z" fill="white"/>
<path d="M114.003 32.2963V31.3706H108.738V32.2963H114.003Z" fill="white"/>
<path d="M105.589 32.2963V31.3706H100.301V32.2963H105.589Z" fill="white"/>
<path d="M98.3592 32.2963V31.3706H97.7368C97.6857 31.4068 97.6327 31.4405 97.5789 31.4717C97.5126 31.5107 97.4444 31.5457 97.3736 31.5769C97.2874 31.6138 97.187 31.6458 97.0722 31.6732C97.0596 31.6762 97.0462 31.6792 97.0336 31.6822C97.0112 31.6871 96.988 31.692 96.9646 31.6967C96.8202 31.7445 96.6606 31.7685 96.4838 31.7685C96.1153 31.7685 95.8274 31.6807 95.6184 31.505C95.5683 31.4622 95.5234 31.4174 95.4849 31.3706H89.0321C89.0326 31.694 89.0598 32.0025 89.1135 32.2963H98.3592Z" fill="white"/>
<path d="M88.2823 32.2963C88.384 32.0037 88.4602 31.6951 88.5109 31.3706H82.4014C82.0806 31.5242 81.6744 31.601 81.1826 31.601H79.9566V31.3706H74.6681V32.2963H88.2823Z" fill="white"/>
<path d="M74.6659 33.2378C74.6594 33.5843 74.6391 33.8928 74.6048 34.1633H87.0936C87.3383 33.9227 87.5554 33.6593 87.7451 33.3731C87.7753 33.3284 87.8046 33.2834 87.8331 33.2378H74.6659Z" fill="white"/>
<path d="M74.6681 30.4284H79.9566V29.5029H74.6681V30.4284Z" fill="white"/>
<path d="M74.6681 28.5607H79.9566V27.6353H74.6681V28.5607Z" fill="white"/>
<path d="M74.6681 26.6937H87.4528C87.2107 26.3675 86.9282 26.059 86.6054 25.7681H74.6681V26.6937Z" fill="white"/>
<path d="M74.6681 24.8269H85.309C84.725 24.4867 84.0553 24.1781 83.2998 23.9014H74.6681V24.8269Z" fill="white"/>
<path d="M74.6683 22.9592H80.1776L79.9567 22.8959V22.4985C79.9567 22.3359 79.9596 22.1809 79.9653 22.0337H74.661C74.6659 22.1814 74.6683 22.3363 74.6683 22.4985V22.9592Z" fill="white"/>
<path d="M89.3925 22.0337V22.9592H99.2343C99.1383 22.6321 99.0101 22.3236 98.8478 22.0337H89.3925Z" fill="white"/>
<path d="M101.084 22.0337C100.926 22.324 100.792 22.6326 100.683 22.9592H113.621C113.511 22.6326 113.377 22.324 113.219 22.0337H101.084Z" fill="white"/>
<path d="M115.756 22.0337C115.761 22.1814 115.763 22.3363 115.763 22.4985V22.9592H120.907V22.4985C120.907 22.3363 120.909 22.1814 120.914 22.0337H115.756Z" fill="white"/>
<path d="M120.991 21.0921H115.68C115.656 20.9316 115.627 20.7858 115.595 20.6543C115.548 20.4716 115.489 20.309 115.422 20.1665H121.249C121.18 20.309 121.123 20.4716 121.075 20.6543C121.042 20.7858 121.015 20.9316 120.991 21.0921Z" fill="white"/>
<path d="M127.895 22.0337C127.9 22.1814 127.902 22.3363 127.902 22.4985V22.9592H133.023V22.4985C133.023 22.3363 133.025 22.1814 133.03 22.0337H127.895Z" fill="white"/>
<path d="M133.106 21.0921H127.819C127.795 20.9316 127.767 20.7858 127.735 20.6543C127.687 20.4716 127.627 20.309 127.557 20.1665H133.368C133.298 20.309 133.238 20.4716 133.191 20.6543C133.159 20.7858 133.13 20.9316 133.106 21.0921Z" fill="white"/>
<path d="M111.589 20.1665H102.723C102.349 20.4356 102.015 20.7441 101.723 21.0921H112.591C112.3 20.7441 111.966 20.4356 111.589 20.1665Z" fill="white"/>
<path d="M133.023 23.9014H127.902V24.8269H133.023V23.9014Z" fill="white"/>
<path d="M133.023 25.7681H127.902V26.6937H133.023V25.7681Z" fill="white"/>
<path d="M133.023 27.6353H127.902V27.7333L127.802 27.6353H115.763V28.5607H133.023V27.6353Z" fill="white"/>
<path d="M133.023 29.5029H115.763V30.4284H133.023V29.5029Z" fill="white"/>
<path d="M114.003 30.4284V29.5029H108.738V30.4284H114.003Z" fill="white"/>
<path d="M105.589 30.4284V29.5029H100.301V30.4284H105.589Z" fill="white"/>
<path d="M95.4159 30.4284C95.4455 30.3707 95.4813 30.3142 95.5226 30.2591C95.6831 30.0834 95.9396 29.8518 96.292 29.5644L96.3754 29.5029H89.41C89.2816 29.804 89.1859 30.1126 89.1229 30.4284H95.4159Z" fill="white"/>
<path d="M88.5861 30.4284C88.5864 30.404 88.5865 30.3795 88.5865 30.3548C88.5865 30.0624 88.5706 29.7784 88.5386 29.5029H83.1929C83.2309 29.6576 83.25 29.8219 83.25 29.9955C83.25 30.151 83.2337 30.2953 83.2011 30.4284H88.5861Z" fill="white"/>
<path d="M82.6005 28.5607H88.3578C88.2697 28.2388 88.1562 27.9302 88.0172 27.6353H80.4847L80.6297 27.6719C81.5255 27.9067 82.1824 28.2032 82.6005 28.5607Z" fill="white"/>
<path d="M90.7972 27.6353C90.4699 27.9239 90.1864 28.2324 89.9473 28.5607H97.5637C97.8435 28.2996 98.0928 28.0273 98.3108 27.7437C98.3386 27.7077 98.3655 27.6716 98.3924 27.6353H90.7972Z" fill="white"/>
<path d="M100.301 27.6353V28.5607H105.589V27.6353H100.301Z" fill="white"/>
<path d="M105.589 26.6937H100.301V25.7681H105.598C105.592 25.8489 105.589 25.9325 105.589 26.0192V26.6937Z" fill="white"/>
<path d="M108.738 27.6353V28.5607H114.003V27.6353H108.738Z" fill="white"/>
<path d="M114.003 26.6937H108.738V26.0192C108.738 25.9325 108.735 25.8489 108.73 25.7681H114.003V26.6937Z" fill="white"/>
<path d="M115.763 26.6937H120.906V25.7681H115.763V26.6937Z" fill="white"/>
<path d="M115.763 24.8269H120.906V23.9014H115.763V24.8269Z" fill="white"/>
<path d="M113.864 23.9014H100.441C100.385 24.1976 100.346 24.506 100.324 24.8269H105.842C105.882 24.7564 105.925 24.6909 105.974 24.6307C106.246 24.3112 106.638 24.1516 107.152 24.1516C107.664 24.1516 108.057 24.3112 108.33 24.6307C108.381 24.6909 108.428 24.7564 108.469 24.8269H113.979C113.956 24.506 113.918 24.1976 113.864 23.9014Z" fill="white"/>
<path d="M99.4308 24.8269C99.4368 24.7148 99.4407 24.6013 99.4407 24.4869C99.4407 24.2866 99.4318 24.0913 99.4129 23.9014H92.6374C92.7442 23.9496 92.8401 24.0091 92.9262 24.0797C93.1881 24.2826 93.3316 24.5318 93.3558 24.8269H99.4308Z" fill="white"/>
<path d="M93.0509 25.7681C93.0419 25.78 93.0321 25.7918 93.0222 25.8036C92.8339 26.0323 92.5021 26.3291 92.0295 26.6937H98.9538C99.0282 26.5357 99.0946 26.3746 99.152 26.2108C99.204 26.0655 99.2488 25.918 99.2865 25.7681H93.0509Z" fill="white"/>
<path d="M90.832 23.9014H89.3925V24.7264H89.5848L89.9453 24.3671C90.0735 24.2713 90.2097 24.1914 90.354 24.1277C90.4993 24.0431 90.6588 23.9677 90.832 23.9014Z" fill="white"/>
<path d="M122.844 25.7681L121.785 26.6937H126.84L125.895 25.7681H122.844Z" fill="white"/>
<path d="M124.934 24.8258H123.921L124.392 24.4141H124.514L124.934 24.8258Z" fill="white"/>
<path d="M1.33279 22.0337H13.2161V22.9592H1.34105V22.4985C1.34105 22.3363 1.3383 22.1814 1.33279 22.0337Z" fill="white"/>
<path d="M137.123 0.790039C136.823 0.790039 136.549 0.840423 136.3 0.941193C136.047 1.03808 135.828 1.17762 135.641 1.35977C135.454 1.53806 135.31 1.74928 135.208 1.99346C135.108 2.23763 135.057 2.50506 135.057 2.79574C135.057 3.08642 135.108 3.35384 135.208 3.59802C135.31 3.84218 135.454 4.05536 135.641 4.23752C135.828 4.4158 136.047 4.55533 136.3 4.6561C136.549 4.75299 136.823 4.80144 137.123 4.80144C137.418 4.80144 137.692 4.75299 137.946 4.6561C138.198 4.55533 138.417 4.4158 138.605 4.23752C138.792 4.05536 138.935 3.84218 139.036 3.59802C139.137 3.35384 139.188 3.08642 139.188 2.79574C139.188 2.50506 139.137 2.23763 139.036 1.99346C138.935 1.74928 138.792 1.53806 138.605 1.35977C138.417 1.17762 138.198 1.03808 137.946 0.941193C137.692 0.840423 137.418 0.790039 137.123 0.790039ZM136.352 4.0573C136.131 3.93714 135.959 3.76855 135.839 3.55151C135.718 3.33447 135.658 3.08254 135.658 2.79574C135.658 2.50506 135.718 2.25313 135.839 2.03997C135.959 1.82293 136.131 1.65433 136.352 1.53418C136.57 1.41404 136.828 1.35396 137.123 1.35396C137.413 1.35396 137.672 1.41404 137.893 1.53418C138.111 1.65433 138.282 1.82293 138.405 2.03997C138.527 2.25313 138.587 2.50506 138.587 2.79574C138.587 3.08254 138.527 3.33447 138.405 3.55151C138.282 3.76855 138.111 3.93714 137.893 4.0573C137.672 4.17745 137.413 4.23752 137.123 4.23752C136.828 4.23752 136.57 4.17745 136.352 4.0573ZM136.51 2.45855H136.552C136.578 2.42755 136.616 2.40235 136.668 2.38298C136.703 2.37135 136.745 2.36553 136.796 2.36553C136.866 2.36553 136.931 2.38298 136.989 2.41785C137.042 2.45274 137.086 2.49925 137.117 2.55738C137.147 2.61552 137.163 2.68334 137.163 2.76086C137.163 2.88488 137.13 2.98565 137.064 3.06317C136.994 3.14068 136.903 3.17944 136.79 3.17944C136.731 3.17944 136.681 3.16781 136.638 3.14456C136.619 3.13293 136.601 3.1213 136.586 3.10968C136.567 3.09418 136.553 3.08061 136.545 3.06898H136.505V3.85963C136.54 3.87514 136.588 3.88676 136.65 3.89452C136.709 3.90226 136.771 3.90615 136.837 3.90615C137.078 3.90615 137.292 3.85963 137.478 3.76661C137.662 3.66972 137.805 3.53601 137.91 3.36548C138.015 3.19106 138.068 2.99146 138.068 2.76668C138.068 2.54575 138.019 2.35002 137.922 2.1795C137.825 2.00896 137.689 1.87719 137.514 1.78417C137.339 1.68728 137.14 1.63883 136.918 1.63883C136.864 1.63883 136.818 1.64077 136.778 1.64464C136.739 1.64851 136.705 1.65046 136.673 1.65046C136.615 1.65046 136.561 1.64464 136.51 1.63301V2.45855Z" fill="white"/>
<path fill-rule="evenodd" clip-rule="evenodd" d="M14.079 14.7615C13.6462 13.6915 13.43 12.51 13.43 11.2164C13.43 9.92301 13.6462 8.74133 14.079 7.67143C14.5277 6.60154 15.1528 5.67537 15.954 4.89291C16.7713 4.11045 17.7248 3.50365 18.8145 3.07249C19.9203 2.64135 21.1383 2.42578 22.4685 2.42578C23.7825 2.42578 24.9926 2.64135 26.0984 3.07249C27.2041 3.50365 28.1576 4.11045 28.959 4.89291C29.7602 5.67537 30.3771 6.60154 30.8099 7.67143C31.2585 8.74133 31.4829 9.92301 31.4829 11.2164C31.4829 12.51 31.2585 13.6915 30.8099 14.7615C30.3771 15.8314 29.7602 16.7574 28.959 17.5401C28.1576 18.3225 27.2041 18.9292 26.0984 19.3604C24.9926 19.7916 23.7825 20.0071 22.4685 20.0071C21.1383 20.0071 19.9203 19.7916 18.8145 19.3604C17.7248 18.9292 16.7713 18.3225 15.954 17.5401C15.1528 16.7574 14.5277 15.8314 14.079 14.7615ZM25.954 11.2164C25.954 10.5298 25.8019 9.92301 25.4973 9.39603C25.2089 8.86908 24.8002 8.45389 24.2714 8.15049C23.7585 7.84709 23.1576 7.69539 22.4685 7.69539C21.7794 7.69539 21.1704 7.84709 20.6416 8.15049C20.1128 8.45389 19.696 8.86908 19.3915 9.39603C19.1031 9.92301 18.9589 10.5298 18.9589 11.2164C18.9589 11.8871 19.1031 12.4939 19.3915 13.0368C19.696 13.5638 20.1128 13.979 20.6416 14.2824C21.1704 14.5859 21.7794 14.7376 22.4685 14.7376C23.1576 14.7376 23.7585 14.5859 24.2714 14.2824C24.8002 13.979 25.2089 13.5638 25.4973 13.0368C25.8019 12.4939 25.954 11.8871 25.954 11.2164Z" fill="white"/>
<path d="M10.1632 14.7858H6.62955V5.97118C6.62955 5.15678 6.70166 4.53401 6.8459 4.10285C6.99013 3.6717 7.18244 3.36033 7.42282 3.1687V2.95312H0.667972V3.1687C0.892331 3.37629 1.0606 3.70364 1.17279 4.15076C1.28497 4.58192 1.34105 5.18872 1.34105 5.97118V16.4625C1.34105 17.245 1.27695 17.8597 1.14875 18.3068C1.03656 18.7381 0.852268 19.0574 0.595856 19.265V19.4806H11.1248C11.5094 19.4806 11.886 19.4965 12.2546 19.5284C12.6231 19.5604 12.9438 19.6163 13.2162 19.6961V14.0432H13.0238C12.7995 14.2988 12.4629 14.4904 12.0142 14.6181C11.5816 14.7299 10.9645 14.7858 10.1632 14.7858Z" fill="white"/>
<path d="M42.1018 11.2646C42.2139 11.6958 42.27 12.3106 42.27 13.109V14.9744C42.1745 14.9764 42.0783 14.9774 41.9815 14.9774C41.1642 14.9774 40.4511 14.8336 39.8421 14.5462C39.2492 14.2428 38.7844 13.8196 38.4478 13.2767C38.1274 12.7178 37.9671 12.071 37.9671 11.3365C37.9671 10.554 38.1434 9.88335 38.4959 9.32446C38.8485 8.76556 39.3693 8.34239 40.0584 8.05497C40.7635 7.75156 41.6209 7.59987 42.6306 7.59987C43.0472 7.59987 43.4158 7.62382 43.7364 7.67172C44.0729 7.71962 44.3774 7.79148 44.6499 7.8873C44.8582 7.95117 45.0585 8.03899 45.2508 8.15078C45.4592 8.24659 45.6435 8.36635 45.8037 8.51007H46.02V2.64163C45.6675 2.75342 45.3148 2.80931 44.9623 2.80931C44.722 2.80931 44.3774 2.77737 43.9286 2.71349C43.4959 2.64962 42.9912 2.61768 42.4142 2.61768C40.3469 2.61768 38.5681 2.96101 37.0777 3.64766C35.5872 4.3343 34.4415 5.32435 33.6401 6.61779C32.8388 7.91125 32.4382 9.47617 32.4382 11.3126C32.4382 13.0212 32.8388 14.5143 33.6401 15.7917C34.4415 17.0692 35.5552 18.0593 36.9816 18.7618C38.4237 19.4644 40.0985 19.8158 42.0056 19.8158C43.0472 19.8158 44.0729 19.7439 45.0825 19.6002C46.0922 19.4565 47.0297 19.2329 47.895 18.9295V18.714C47.6546 18.5224 47.4784 18.2509 47.3662 17.8995C47.2541 17.5483 47.1979 16.9973 47.1979 16.2468V13.109C47.1979 12.3106 47.2541 11.6958 47.3662 11.2646C47.4784 10.8176 47.6546 10.4902 47.895 10.2826V10.0669H41.5969V10.2826C41.8213 10.4902 41.9896 10.8176 42.1018 11.2646Z" fill="white"/>
<path fill-rule="evenodd" clip-rule="evenodd" d="M48.7765 14.7615C48.3438 13.6915 48.1274 12.51 48.1274 11.2164C48.1274 9.92301 48.3438 8.74133 48.7765 7.67143C49.2251 6.60154 49.8502 5.67537 50.6514 4.89291C51.4688 4.11045 52.4223 3.50365 53.5121 3.07249C54.6178 2.64135 55.8358 2.42578 57.166 2.42578C58.4801 2.42578 59.6901 2.64135 60.7959 3.07249C61.9016 3.50365 62.8551 4.11045 63.6564 4.89291C64.4576 5.67537 65.0747 6.60154 65.5074 7.67143C65.956 8.74133 66.1804 9.92301 66.1804 11.2164C66.1804 12.51 65.956 13.6915 65.5074 14.7615C65.0747 15.8314 64.4576 16.7574 63.6564 17.5401C62.8551 18.3225 61.9016 18.9292 60.7959 19.3604C59.6901 19.7916 58.4801 20.0071 57.166 20.0071C55.8358 20.0071 54.6178 19.7916 53.5121 19.3604C52.4223 18.9292 51.4688 18.3225 50.6514 17.5401C49.8502 16.7574 49.2251 15.8314 48.7765 14.7615ZM60.6515 11.2164C60.6515 10.5298 60.4994 9.92301 60.1947 9.39603C59.9064 8.86908 59.4976 8.45389 58.9688 8.15049C58.4561 7.84709 57.8551 7.69539 57.166 7.69539C56.4768 7.69539 55.8679 7.84709 55.339 8.15049C54.8102 8.45389 54.3935 8.86908 54.089 9.39603C53.8005 9.92301 53.6564 10.5298 53.6564 11.2164C53.6564 11.8871 53.8005 12.4939 54.089 13.0368C54.3935 13.5638 54.8102 13.979 55.339 14.2824C55.8679 14.5859 56.4768 14.7376 57.166 14.7376C57.8551 14.7376 58.4561 14.5859 58.9688 14.2824C59.4976 13.979 59.9064 13.5638 60.1947 13.0368C60.4994 12.4939 60.6515 11.8871 60.6515 11.2164Z" fill="white"/>
<path d="M67.3278 4.15076C67.44 4.58192 67.4961 5.18872 67.4961 5.97118V16.4625C67.4961 17.245 67.44 17.8597 67.3278 18.3068C67.2156 18.7381 67.0474 19.0574 66.823 19.265V19.4806H73.4577V19.265C73.2333 19.0574 73.065 18.7381 72.9528 18.3068C72.8406 17.8597 72.7846 17.245 72.7846 16.4625V5.97118C72.7846 5.18872 72.8406 4.58192 72.9528 4.15076C73.065 3.70364 73.2333 3.37629 73.4577 3.1687V2.95312H66.823V3.1687C67.0474 3.37629 67.2156 3.70364 67.3278 4.15076Z" fill="white"/>
<path fill-rule="evenodd" clip-rule="evenodd" d="M80.1731 18.3308C80.3175 18.762 80.5097 19.0734 80.7501 19.265V19.4806H73.9953V19.265C74.2197 19.0574 74.3879 18.7381 74.5001 18.3068C74.6123 17.8597 74.6684 17.245 74.6684 16.4625V5.97118C74.6684 5.18872 74.6043 4.58192 74.476 4.15076C74.3638 3.70364 74.1796 3.37629 73.9232 3.1687V2.95312H81.6396C83.082 2.95312 84.3159 3.18466 85.3415 3.64775C86.3832 4.09488 87.1846 4.7416 87.7454 5.58793C88.3062 6.41829 88.5867 7.42431 88.5867 8.60598C88.5867 9.73976 88.3464 10.7457 87.8656 11.6241C87.3847 12.5023 86.6476 13.2688 85.654 13.9234C84.6604 14.5623 83.3864 15.0972 81.8319 15.5284L79.9569 16.0649V16.4625C79.9569 17.2769 80.029 17.8996 80.1731 18.3308ZM80.63 11.2887L79.9569 11.4588V7.36044H81.1828C81.8559 7.36044 82.3688 7.50415 82.7213 7.79158C83.0738 8.06306 83.2502 8.45428 83.2502 8.96528C83.2502 9.54014 83.0419 10.0112 82.6251 10.3785C82.2085 10.7457 81.5435 11.0492 80.63 11.2887Z" fill="white"/>
<path d="M98.1673 7.91112H98.3593V2.7373C98.0391 2.84909 97.7422 2.90498 97.4696 2.90498C97.2938 2.90498 97.0293 2.88103 96.6768 2.83312C96.3243 2.78521 95.9315 2.76126 95.4984 2.76126C93.4474 2.76126 91.8528 3.2004 90.7148 4.07867C89.5932 4.94096 89.0323 6.11465 89.0323 7.59972C89.0323 8.36622 89.2085 9.09278 89.5611 9.77946C89.9137 10.4502 90.4268 11.0489 91.0994 11.5759L91.7488 12.055C92.3738 12.518 92.7981 12.8853 93.0223 13.1568C93.2474 13.4283 93.3595 13.7236 93.3595 14.043C93.3595 14.3784 93.2151 14.6578 92.9263 14.8814C92.6536 15.105 92.2779 15.2167 91.7964 15.2167C91.5246 15.2167 91.26 15.1848 91.0035 15.1209C90.7631 15.0411 90.5471 14.9453 90.3543 14.8335C90.2102 14.7696 90.0739 14.6897 89.9457 14.5939L89.5852 14.2346H89.3928V19.2887C89.7133 19.4005 90.1861 19.4882 90.8107 19.5522C91.4519 19.6321 92.077 19.6719 92.686 19.6719C94.8499 19.6719 96.5162 19.2088 97.6866 18.2827C98.8561 17.3406 99.4407 16.071 99.4407 14.4741C99.4407 13.8674 99.3444 13.2926 99.1529 12.7495C98.9601 12.2066 98.6794 11.6957 98.3108 11.2166C97.9422 10.7375 97.4857 10.2904 96.9414 9.87526L96.292 9.39618C95.9396 9.10875 95.6831 8.87721 95.5226 8.70155C95.3782 8.50993 95.3065 8.30234 95.3065 8.07879C95.3065 7.83925 95.4105 7.63167 95.6185 7.45601C95.8276 7.28035 96.1154 7.19253 96.484 7.19253C96.6607 7.19253 96.8212 7.21648 96.9646 7.26439C97.1252 7.29633 97.2615 7.33625 97.3736 7.38415C97.518 7.44803 97.6543 7.52788 97.7826 7.62367C97.927 7.70352 98.0552 7.79934 98.1673 7.91112Z" fill="white"/>
<path d="M100.301 5.97118C100.301 5.18872 100.245 4.58192 100.132 4.15076C100.02 3.70364 99.8518 3.37629 99.6284 3.1687V2.95312H106.238V3.1687C106.014 3.37629 105.846 3.70364 105.734 4.15076C105.637 4.58192 105.589 5.18872 105.589 5.97118V12.9414C105.589 13.5482 105.717 14.0113 105.974 14.3307C106.246 14.6501 106.639 14.8098 107.152 14.8098C107.664 14.8098 108.057 14.6501 108.33 14.3307C108.602 14.0113 108.738 13.5482 108.738 12.9414V5.97118C108.738 5.18872 108.683 4.58192 108.571 4.15076C108.474 3.70364 108.305 3.37629 108.065 3.1687V2.95312H114.7V3.1687C114.459 3.37629 114.283 3.70364 114.171 4.15076C114.058 4.58192 114.003 5.18872 114.003 5.97118V13.4445C114.003 14.8337 113.731 16.0154 113.186 16.9894C112.657 17.9635 111.88 18.7141 110.853 19.2411C109.843 19.752 108.609 20.0075 107.152 20.0075C105.709 20.0075 104.476 19.752 103.449 19.2411C102.44 18.7141 101.663 17.9635 101.118 16.9894C100.574 16.0154 100.301 14.8337 100.301 13.4445V5.97118Z" fill="white"/>
<path d="M115.571 4.17471C115.7 4.6378 115.763 5.31647 115.763 6.21071V16.4625C115.763 17.245 115.708 17.8597 115.595 18.3068C115.483 18.7381 115.314 19.0574 115.09 19.265V19.4806H121.581V19.265C121.356 19.0574 121.187 18.7381 121.075 18.3068C120.964 17.8597 120.907 17.245 120.907 16.4625V11.5004L124.392 14.5463H124.513L127.903 11.2274V16.4625C127.903 17.245 127.847 17.8597 127.735 18.3068C127.622 18.7381 127.446 19.0574 127.205 19.265V19.4806H133.72V19.265C133.48 19.0574 133.304 18.7381 133.191 18.3068C133.078 17.8597 133.023 17.245 133.023 16.4625V6.21071C133.023 5.31647 133.086 4.6378 133.214 4.17471C133.359 3.71163 133.559 3.37629 133.816 3.1687V2.95312H128.095V3.12079C128.304 3.50404 128.368 3.89527 128.287 4.29448C128.207 4.67772 127.967 5.06097 127.566 5.44421L124.502 8.51403L121.292 5.3963C120.891 4.9971 120.651 4.61385 120.571 4.24658C120.491 3.86333 120.555 3.48806 120.763 3.12079V2.95312H114.97V3.1687C115.243 3.37629 115.442 3.71163 115.571 4.17471Z" fill="white"/>
</g>
</g>
</g>
<defs>
<clipPath id="clip0_886_273">
<rect width="140" height="36.73" fill="white"/>
</clipPath>
<clipPath id="clip1_886_273">
<rect width="140" height="36.7376" fill="white" transform="translate(0 -0.00390625)"/>
</clipPath>
</defs>
</svg>
