<svg width="125" height="25" viewBox="0 0 125 25" fill="none" xmlns="http://www.w3.org/2000/svg">
<g clip-path="url(#clip0_886_244)">
<g clip-path="url(#clip1_886_244)">
<mask id="mask0_886_244" style="mask-type:luminance" maskUnits="userSpaceOnUse" x="0" y="0" width="125" height="25">
<path d="M124.305 0.59375H0.297546V24.4033H124.305V0.59375Z" fill="white"/>
</mask>
<g mask="url(#mask0_886_244)">
<path d="M57.7654 2.97565C57.5738 4.34028 58.457 5.35754 59.8332 5.35754C61.2098 5.35754 62.3786 4.34028 62.5703 2.97565C62.762 1.61102 61.8784 0.59375 60.502 0.59375C59.1258 0.59375 57.9569 1.61102 57.7654 2.97565Z" fill="white"/>
<path d="M57.7998 6.47461L56.6193 14.8844L60.3932 14.7396L61.5533 6.47461H57.7998Z" fill="white"/>
<path fill-rule="evenodd" clip-rule="evenodd" d="M47.8872 19.0538C50.8644 19.0538 53.3948 17.4665 54.6601 15.0623L56.5832 15.141L56.0794 18.7311H59.8332L60.3156 15.2938L62.3057 15.3754L61.0994 23.9665H64.8535L65.7761 17.3915C66.3985 18.4832 67.5697 19.0538 69.0466 19.0538C71.0426 19.0538 73.3863 18.0219 74.7872 15.8864L76.2248 15.9452C76.4698 17.8006 78.1965 19.0538 80.9359 19.0538C84.1139 19.0538 86.4528 17.3667 86.8082 14.8359C87.2159 11.933 84.5542 11.4616 82.8121 11.2135L82.6602 11.1902C81.607 11.0294 80.8031 10.9067 80.9027 10.1962C80.9727 9.69998 81.4142 9.22855 82.3398 9.22855C83.091 9.22855 83.546 9.55111 83.5662 10.1218H87.2194C87.4544 7.91355 85.8001 6.15193 82.7219 6.15193C79.6437 6.15193 77.4228 7.88873 77.0745 10.3698C76.6603 13.3224 79.404 13.7442 81.0706 13.9923L81.1626 14.0063L81.2908 14.0257L81.292 14.0259C82.3113 14.1792 83.0803 14.2948 82.9729 15.0593C82.8999 15.5802 82.4686 15.9772 81.3175 15.9772C80.2916 15.9772 79.8614 15.6547 79.9267 15.0096L53.3604 15.0091L54.7144 14.9572C55.079 14.2367 55.3311 13.4452 55.4493 12.6028C55.9717 8.88117 53.6021 6.15193 49.6983 6.15193C49.6378 6.15193 49.5775 6.15259 49.5174 6.15388L49.5293 6.14587L37.6953 6.14588C37.5258 6.14474 37.3649 6.14473 37.214 6.14588H37.6953C40.7343 6.16638 46.5256 6.5523 45.7806 7.18099C43.8348 8.30295 42.4657 10.2555 42.1362 12.6028C41.6137 16.3246 43.9833 19.0538 47.8872 19.0538ZM48.3748 15.5802C50.0765 15.5802 51.3982 14.3645 51.6455 12.6028C51.8929 10.8412 50.9124 9.62551 49.2107 9.62551C47.5089 9.62551 46.1872 10.8412 45.9399 12.6028C45.6927 14.3645 46.6731 15.5802 48.3748 15.5802Z" fill="white"/>
<path d="M72.1539 12.6028C72.0619 13.2613 71.8192 13.8436 71.4626 14.3145L75.6148 14.1552C75.7578 13.7175 75.867 13.2498 75.937 12.7517C76.4906 8.80668 74.1107 6.15186 70.1816 6.15186C66.4033 6.15186 63.2555 8.60816 62.6771 12.7269L62.4059 14.662L66.7556 14.4951C66.459 13.9959 66.3438 13.3482 66.4483 12.6028C66.6957 10.8412 68.0176 9.62543 69.7194 9.62543C71.4211 9.62543 72.4013 10.8412 72.1539 12.6028Z" fill="white"/>
<path d="M101.436 16.8475L102.14 11.8337C102.693 7.88864 105.24 6.15186 108.242 6.15186C109.994 6.15186 111.377 6.82174 112.121 8.11197C113.228 6.82174 114.774 6.15186 116.551 6.15186C119.554 6.15186 121.612 7.88864 121.059 11.8337L120.09 18.7313H116.336L117.305 11.8337C117.535 10.1961 116.813 9.62543 115.687 9.62543C114.586 9.62543 113.706 10.1961 113.476 11.8337L112.508 18.7313H108.754L109.722 11.8337C109.952 10.1961 109.232 9.62543 108.13 9.62543C107.004 9.62543 106.123 10.1961 105.894 11.8337L104.926 18.7313H102.676L102.677 18.7327H97.4171C99.5992 18.5112 101.276 17.9132 101.433 16.8422L101.436 16.8475Z" fill="white"/>
<path d="M93.4275 19.054C89.7737 19.054 87.6139 16.9698 88.1954 12.8264L88.8528 8.14526C88.9578 6.9361 88.0067 6.78503 85.9086 6.48206H89.086L89.0872 6.47461H92.8413L91.9495 12.8264C91.6777 14.7617 92.5137 15.5804 93.9152 15.5804C95.3167 15.5804 96.3823 14.7617 96.6541 12.8264L97.5458 6.47461H101.3L100.408 12.8264C99.8294 16.945 97.0812 19.054 93.4275 19.054Z" fill="white"/>
<path d="M29.5001 17.2806C29.2347 16.9899 29.0057 16.6684 28.816 16.3196L26.1359 16.1734C24.7497 17.9435 22.5721 19.0538 20.0821 19.0538C16.1782 19.0538 13.8086 16.3245 14.331 12.6028C14.8535 8.88108 17.9893 6.15186 21.8931 6.15186C25.797 6.15186 28.1666 8.88108 27.6442 12.6028C27.5248 13.4535 27.2687 14.2524 26.8984 14.9787L22.0702 15.2254C23.0103 14.7419 23.6727 13.798 23.8404 12.6028C24.0877 10.8412 23.1072 9.62543 21.4055 9.62543C19.7038 9.62543 18.382 10.8412 18.1348 12.6028C17.9497 13.9215 18.4526 14.9343 19.4309 15.3602L15.1945 15.5768H34.5646V15.579C36.2215 15.5358 37.5002 14.3324 37.7429 12.6028C37.9902 10.8412 37.0097 9.62543 35.308 9.62543C33.6063 9.62543 32.2846 10.8412 32.0373 12.6028C31.9182 13.4513 32.0839 14.1731 32.4779 14.6935L28.2964 14.9072C28.1439 14.2001 28.118 13.4257 28.2335 12.6028C28.7559 8.88108 31.8917 6.15186 35.7956 6.15186C39.6995 6.15186 42.0691 8.88108 41.5467 12.6028C41.042 16.1978 38.099 18.8668 34.3806 19.0444C35.2563 19.5379 36.5283 19.937 37.4632 20.2303C37.7751 20.3282 38.0495 20.4142 38.2591 20.4881C39.1082 20.6982 39.6508 21.4827 39.5194 22.4182C39.3656 23.5146 38.3443 24.4035 37.2384 24.4035H31.2312C29.2676 24.4035 27.8308 23.0023 27.7486 21.1534L20.3394 20.4338H27.7838L34.1898 20.4329C32.7251 19.8713 31.1774 18.7477 30.1822 17.8999C29.9342 17.7135 29.7066 17.5068 29.5009 17.2815L29.5001 17.2806Z" fill="white"/>
<path d="M0.297546 2.50443L3.36381 2.99301L1.15466 18.7311H12.9413L13.4638 15.0094H5.73109L7.48639 2.50439L0.297546 2.50443Z" fill="white"/>
<path d="M124.306 5.2821C124.306 6.07298 123.666 6.71413 122.875 6.71413C122.085 6.71413 121.445 6.07298 121.445 5.2821C121.445 4.49123 122.085 3.8501 122.875 3.8501C123.666 3.8501 124.306 4.49123 124.306 5.2821Z" fill="white"/>
</g>
</g>
</g>
<defs>
<clipPath id="clip0_886_244">
<rect width="125" height="24.8" fill="white"/>
</clipPath>
<clipPath id="clip1_886_244">
<rect width="125" height="24.8016" fill="white" transform="translate(0 -0.000976562)"/>
</clipPath>
</defs>
</svg>
