<svg width="142" height="37" viewBox="0 0 142 37" fill="none" xmlns="http://www.w3.org/2000/svg">
<g clip-path="url(#clip0_886_5)">
<path d="M16.4565 7.58132V3.11279H2.35583V33.8143H16.4565V29.3457C13.568 29.3457 10.7977 28.1991 8.75528 26.1584C6.71278 24.1176 5.56532 21.3496 5.56532 18.4636C5.56532 15.5774 6.71278 12.8094 8.75528 10.7687C10.7977 8.72785 13.568 7.58132 16.4565 7.58132Z" fill="white"/>
<path d="M16.4567 7.58154V29.346C19.3452 29.346 22.1155 28.1993 24.1579 26.1586C26.2004 24.1178 27.3479 21.3499 27.3479 18.4638C27.3479 15.5776 26.2004 12.8096 24.1579 10.7689C22.1155 8.72807 19.3452 7.58154 16.4567 7.58154Z" fill="white"/>
<path d="M35.261 10.3149H38.4179V25.5079H35.261V10.3149Z" fill="white"/>
<path d="M40.1858 20.3036C40.1858 19.2105 40.5106 18.142 41.119 17.2336C41.7274 16.3252 42.5922 15.6177 43.6035 15.2008C44.6148 14.784 45.7273 14.6765 46.7997 14.8921C47.8723 15.1077 48.8565 15.6365 49.6279 16.4116C50.3992 17.1868 50.9229 18.1733 51.1325 19.2461C51.342 20.319 51.2282 21.4298 50.8052 22.4379C50.3822 23.4459 49.6692 24.3059 48.7565 24.9085C47.8439 25.5113 46.7727 25.8297 45.6787 25.8235C44.9531 25.8292 44.2337 25.69 43.5626 25.4142C42.8916 25.1384 42.2823 24.7315 41.7707 24.2174C41.2591 23.7033 40.8555 23.0922 40.5832 22.4202C40.3111 21.7481 40.176 21.0285 40.1858 20.3036ZM48.099 20.3036C48.0866 19.8323 47.9353 19.3751 47.6643 18.9893C47.3932 18.6035 47.0144 18.306 46.575 18.1343C46.1356 17.9625 45.6554 17.9238 45.1942 18.0234C44.7331 18.1229 44.3114 18.356 43.9823 18.6937C43.653 19.0313 43.4307 19.4584 43.3431 19.9217C43.2555 20.3849 43.3065 20.8636 43.4898 21.298C43.6731 21.7323 43.9806 22.1031 44.3737 22.3638C44.7667 22.6245 45.2279 22.7637 45.6998 22.7639C46.021 22.7702 46.3401 22.7101 46.6371 22.5875C46.934 22.4651 47.2025 22.2826 47.4256 22.0518C47.6488 21.8208 47.8219 21.5463 47.9342 21.2456C48.0464 20.9448 48.0954 20.6241 48.0779 20.3036H48.099Z" fill="white"/>
<path d="M63.6623 15.0997V24.9935C63.6623 28.4842 60.9264 29.9668 58.1589 29.9668C57.1827 30.0468 56.2034 29.853 55.3317 29.4072C54.4597 28.9613 53.7297 28.2812 53.2236 27.4433L55.8859 25.9082C56.1017 26.3429 56.4447 26.7015 56.8697 26.9362C57.2946 27.1711 57.7809 27.2709 58.264 27.2226C58.5719 27.2604 58.8842 27.2299 59.1787 27.1332C59.4734 27.0363 59.7428 26.8758 59.968 26.6627C60.1933 26.4497 60.3687 26.1898 60.4816 25.9011C60.5945 25.6126 60.6422 25.3026 60.6212 24.9935V24.0367C60.2538 24.4818 59.7877 24.8351 59.2598 25.0688C58.7319 25.3023 58.1569 25.4098 57.5801 25.3825C56.1847 25.3825 54.8464 24.8286 53.8598 23.8428C52.873 22.8569 52.3186 21.5197 52.3186 20.1255C52.3186 18.7312 52.873 17.3941 53.8598 16.4081C54.8464 15.4223 56.1847 14.8684 57.5801 14.8684C58.1569 14.8412 58.7319 14.9486 59.2598 15.1822C59.7877 15.4158 60.2538 15.7691 60.6212 16.2142V15.1627L63.6623 15.0997ZM60.6212 20.0939C60.6422 19.5909 60.5121 19.093 60.2477 18.6646C59.9832 18.236 59.5965 17.8963 59.1373 17.689C58.678 17.4818 58.1674 17.4165 57.6707 17.5017C57.1741 17.5869 56.7142 17.8185 56.3505 18.1669C55.9867 18.5152 55.7355 18.9643 55.6293 19.4566C55.5229 19.9487 55.5664 20.4613 55.754 20.9285C55.9418 21.3958 56.265 21.7963 56.6823 22.0785C57.0996 22.3606 57.5919 22.5118 58.0957 22.5122C58.4246 22.5358 58.7547 22.4903 59.0647 22.3787C59.3748 22.2669 59.658 22.0914 59.8959 21.8634C60.134 21.6356 60.3215 21.3604 60.4465 21.0555C60.5713 20.7508 60.6309 20.4231 60.6212 20.0939Z" fill="white"/>
<path d="M65.4408 20.3036C65.4408 19.2114 65.7651 18.1438 66.3726 17.2358C66.9801 16.3278 67.8435 15.6203 68.8536 15.2029C69.8636 14.7854 70.975 14.6767 72.047 14.8906C73.1189 15.1044 74.1033 15.6311 74.8756 16.4041C75.6477 17.1773 76.173 18.1618 76.3849 19.2332C76.597 20.3047 76.4861 21.4149 76.0664 22.4233C75.6465 23.4318 74.9368 24.2931 74.0269 24.8985C73.117 25.5037 72.048 25.8257 70.9548 25.8236C70.2279 25.8306 69.5068 25.6926 68.8339 25.4175C68.1611 25.1425 67.5499 24.736 67.0364 24.2218C66.5228 23.7077 66.1171 23.0963 65.8431 22.4235C65.5692 21.7507 65.4324 21.0299 65.4408 20.3036ZM73.3541 20.3036C73.3417 19.832 73.1901 19.3744 72.9186 18.9883C72.6471 18.6023 72.2675 18.3049 71.8276 18.1334C71.3876 17.9619 70.9068 17.924 70.4453 18.0244C69.984 18.1247 69.5625 18.3589 69.2336 18.6975C68.9047 19.0363 68.6833 19.4643 68.597 19.9283C68.5106 20.3922 68.5631 20.8712 68.7479 21.3053C68.9328 21.7395 69.2419 22.1095 69.6363 22.3691C70.0308 22.6285 70.4931 22.7659 70.9653 22.7639C71.2866 22.7703 71.6057 22.7102 71.9026 22.5877C72.1996 22.4651 72.468 22.2827 72.6912 22.0518C72.9144 21.821 73.0874 21.5464 73.1998 21.2457C73.3121 20.9449 73.361 20.6242 73.3435 20.3036H73.3541Z" fill="white"/>
<path d="M77.9314 12.3124C77.9314 11.9423 78.0413 11.5805 78.2471 11.2727C78.4529 10.9649 78.7455 10.725 79.0877 10.5834C79.4299 10.4417 79.8066 10.4047 80.1699 10.4769C80.5332 10.5491 80.867 10.7273 81.129 10.9891C81.3909 11.2508 81.5693 11.5844 81.6416 11.9473C81.7139 12.3104 81.6767 12.6867 81.535 13.0287C81.3932 13.3706 81.1531 13.6629 80.8451 13.8686C80.5371 14.0742 80.175 14.184 79.8045 14.184C79.3094 14.1785 78.8362 13.9796 78.4861 13.6298C78.136 13.2799 77.9369 12.8072 77.9314 12.3124ZM78.2365 15.0987H81.3934V25.5078H78.2365V15.0987Z" fill="white"/>
<path d="M94.905 20.3036C94.9403 20.9959 94.8383 21.6883 94.6048 22.341C94.3714 22.9938 94.011 23.5939 93.5445 24.1069C93.0779 24.62 92.5145 25.0358 91.8865 25.3304C91.2586 25.6249 90.5785 25.7925 89.8855 25.8235C89.2974 25.8626 88.708 25.7686 88.1615 25.5483C87.6148 25.3279 87.1251 24.9872 86.7286 24.5514V29.6928H83.5718V15.099H86.7286V16.077C87.1256 15.6423 87.6157 15.3032 88.1624 15.0846C88.709 14.8661 89.2982 14.774 89.8855 14.8152C90.5759 14.8462 91.2532 15.0129 91.879 15.3055C92.5048 15.5981 93.0668 16.0111 93.5328 16.5207C93.999 17.0303 94.36 17.6267 94.5954 18.2759C94.8309 18.9249 94.9361 19.6139 94.905 20.3036ZM91.7481 20.3036C91.7357 19.8152 91.5792 19.3415 91.2984 18.9416C91.0176 18.5418 90.6249 18.2335 90.1696 18.0557C89.7143 17.8778 89.2165 17.8383 88.7387 17.9418C88.261 18.0454 87.8245 18.2876 87.4838 18.638C87.1432 18.9885 86.9137 19.4315 86.8242 19.9119C86.7345 20.3921 86.7887 20.888 86.98 21.3376C87.1713 21.787 87.4911 22.1703 87.8994 22.439C88.3077 22.7077 88.7863 22.85 89.2752 22.8481C89.6101 22.8623 89.9441 22.8056 90.2555 22.6818C90.5669 22.5578 90.8486 22.3696 91.0822 22.1294C91.3156 21.8891 91.4956 21.6023 91.6104 21.2877C91.7253 20.973 91.772 20.6376 91.7481 20.3036Z" fill="white"/>
<path d="M104.512 22.3853C104.512 24.7826 102.408 25.8025 100.177 25.8025C99.2668 25.8843 98.3533 25.6915 97.5543 25.2493C96.7551 24.8069 96.1072 24.1352 95.694 23.3211L98.409 21.786C98.5165 22.1612 98.7497 22.4881 99.0695 22.712C99.389 22.9359 99.7763 23.0433 100.167 23.0162C100.913 23.0162 101.293 22.7849 101.293 22.3644C101.293 21.2182 96.1675 21.8281 96.1675 18.2217C96.1675 15.9506 98.0827 14.8151 100.25 14.8151C101.074 14.7782 101.893 14.9651 102.619 15.3556C103.345 15.7463 103.952 16.3261 104.375 17.0336L101.66 18.4635C101.541 18.1922 101.344 17.9616 101.096 17.7993C100.848 17.637 100.558 17.55 100.261 17.5488C99.7138 17.5488 99.3871 17.7591 99.3871 18.1271C99.3871 19.3258 104.512 18.5371 104.512 22.3853Z" fill="white"/>
<path d="M115.95 15.0986V25.5077H112.794V24.5299C112.435 24.9628 111.979 25.3053 111.465 25.5299C110.95 25.7546 110.389 25.855 109.827 25.8231C107.721 25.8231 105.922 24.3196 105.922 21.5124V15.0986H109.079V21.0392C109.054 21.2875 109.084 21.5383 109.165 21.7742C109.248 22.0101 109.379 22.2254 109.552 22.4054C109.725 22.5853 109.936 22.7255 110.168 22.8165C110.401 22.9073 110.651 22.9467 110.9 22.9318C112.036 22.9318 112.836 22.2588 112.836 20.8289V15.0986H115.95Z" fill="white"/>
<path d="M133.839 19.1157V25.5084H130.683V19.3891C130.683 18.3377 130.188 17.6858 129.188 17.6858C128.189 17.6858 127.558 18.4112 127.558 19.6414V25.5084H124.401V19.3891C124.401 18.3377 123.906 17.6858 122.906 17.6858C121.906 17.6858 121.275 18.4112 121.275 19.6414V25.5084H118.118V15.0993H121.275V16.056C121.603 15.6334 122.029 15.2987 122.518 15.082C123.007 14.8654 123.542 14.7738 124.074 14.8154C124.607 14.7876 125.141 14.899 125.618 15.1386C126.096 15.3782 126.503 15.7379 126.8 16.1822C127.147 15.7179 127.605 15.3491 128.134 15.1101C128.661 14.871 129.242 14.7697 129.82 14.8154C132.282 14.8154 133.839 16.5187 133.839 19.1157Z" fill="white"/>
<path d="M136.492 15.0364C137.77 15.0364 138.807 14.0007 138.807 12.7233C138.807 11.4458 137.77 10.4102 136.492 10.4102C135.213 10.4102 134.176 11.4458 134.176 12.7233C134.176 14.0007 135.213 15.0364 136.492 15.0364Z" fill="white"/>
</g>
<defs>
<clipPath id="clip0_886_5">
<rect width="142" height="36.73" fill="white"/>
</clipPath>
</defs>
</svg>
